<svg width="20" height="22" viewBox="0 0 20 22" fill="none" xmlns="http://www.w3.org/2000/svg">
<path d="M10.3019 0.61175C10.2847 0.611908 10.2676 0.612485 10.2505 0.613482C10.178 0.618629 10.1065 0.63313 10.038 0.656596C9.98604 0.674509 9.93615 0.697424 9.88904 0.72499L1.23391 5.52417C1.11211 5.59173 1.01097 5.6889 0.94066 5.8059C0.870346 5.9229 0.833334 6.05561 0.833344 6.19071C0.833344 6.1959 0.833704 6.20179 0.833884 6.20733C0.833704 6.21339 0.833884 6.21945 0.833884 6.22568V15.8101C0.833857 15.9494 0.87316 16.086 0.947606 16.2055C1.02205 16.325 1.12885 16.4228 1.25663 16.4886L9.90824 21.2862C9.92447 21.295 9.94069 21.3033 9.95692 21.3111V21.3128C9.98129 21.3241 10.0063 21.3341 10.0317 21.3429C10.0317 21.3438 10.0407 21.3455 10.0425 21.3464C10.0678 21.355 10.093 21.3617 10.1192 21.3676C10.1282 21.3685 10.1291 21.3702 10.1336 21.3711C10.1588 21.3763 10.185 21.3808 10.2111 21.3837C10.2111 21.3841 10.2201 21.3845 10.2237 21.3846C10.2508 21.3872 10.2787 21.3889 10.3057 21.3889C10.3328 21.3889 10.3607 21.3872 10.3878 21.3846C10.3878 21.3841 10.3968 21.3838 10.4004 21.3837C10.4265 21.3811 10.4524 21.3769 10.4779 21.3711C10.4869 21.3702 10.4878 21.3693 10.4923 21.3676C10.5182 21.3617 10.5438 21.3546 10.5689 21.3464C10.5689 21.3455 10.578 21.3438 10.5798 21.3429C10.6052 21.3341 10.6302 21.3241 10.6546 21.3129V21.3111C10.671 21.3033 10.6873 21.295 10.7033 21.2863L19.3551 16.4887C19.4829 16.4229 19.5897 16.325 19.6641 16.2055C19.7385 16.0861 19.7778 15.9494 19.7778 15.8102V6.21988C19.7778 6.21209 19.7772 6.20499 19.7771 6.19755H19.7773V6.19062C19.7773 6.07943 19.7521 5.96957 19.7036 5.86862C19.6551 5.76766 19.5844 5.678 19.4964 5.60581C19.4874 5.59888 19.4793 5.59178 19.4702 5.58495C19.4702 5.58321 19.4612 5.58062 19.4612 5.57889C19.4305 5.55635 19.3982 5.53595 19.3644 5.51785L10.7142 0.720748C10.5878 0.64783 10.4428 0.609899 10.2954 0.611144L10.3019 0.61175ZM10.3109 2.56167C10.3758 2.56167 10.441 2.57786 10.4993 2.61015L16.3912 5.87748C16.6426 6.01687 16.6426 6.36516 16.3912 6.50454L10.4992 9.77187C10.4419 9.80365 10.3769 9.82038 10.3107 9.82038C10.2445 9.82038 10.1795 9.80365 10.1222 9.77187L4.23034 6.50454C3.97903 6.36524 3.97894 6.01687 4.23034 5.87748L10.1224 2.61015C10.1797 2.57844 10.2447 2.56172 10.3108 2.56167H10.3109ZM3.02773 8.15266C3.09576 8.15172 3.16277 8.16863 3.22152 8.20158L9.10206 11.4625C9.15922 11.4942 9.2067 11.5398 9.2397 11.5947C9.27271 11.6495 9.29008 11.7118 9.29008 11.7752V18.2965C9.29008 18.5746 8.97668 18.7485 8.72583 18.6093L2.84556 15.3484C2.78839 15.3167 2.74092 15.2711 2.70792 15.2162C2.67491 15.1613 2.65754 15.099 2.65754 15.0356V8.51429C2.65754 8.30581 2.83375 8.15587 3.02773 8.15266ZM17.5938 8.15266C17.7876 8.15613 17.964 8.30573 17.964 8.51429V15.0355C17.964 15.1645 17.8919 15.2838 17.7758 15.3484L11.8954 18.6093C11.6448 18.7484 11.3313 18.5746 11.3313 18.2964V11.7752C11.3313 11.6462 11.4034 11.527 11.5194 11.4624L17.3997 8.20149C17.4585 8.16853 17.5256 8.15162 17.5937 8.15258L17.5938 8.15266Z" fill="#2188FF"/>
</svg>
